<svg width="700" height="700" viewBox="0 0 700 700" fill="none" xmlns="http://www.w3.org/2000/svg">
<path d="M351.205 22C359.705 22 364.206 28 364.206 28C364.206 28 582.206 303.5 587.706 348.5C645.706 513.5 510.206 678 351.206 678C192.205 678 55.7058 523 110.206 348.5C130.819 282.5 337.705 28 337.705 28C337.705 28 342.705 22 351.205 22Z" fill="url(#paint0_linear_8_3)"/>
<path d="M230 467.808C230 467.808 230 492 252.482 492H445.182C470 491.417 470 467.808 470 467.808V356.465C470 334.022 445.182 334.022 445.182 334.022H349.837C348.817 334.022 347.835 333.632 347.092 332.931L317.579 305.09C316.837 304.39 315.855 304 314.834 304H252.482C230 304 230 324.112 230 324.112V467.808Z" fill="url(#paint1_linear_8_3)"/>
<path d="M341.062 368C339.406 368 338.062 369.343 338.062 371V417.897C338.062 419.554 336.719 420.897 335.062 420.897H325.051C322.569 420.897 321.161 423.738 322.663 425.713L347.112 457.86C348.313 459.439 350.687 459.439 351.888 457.86L376.337 425.713C377.839 423.738 376.431 420.897 373.949 420.897H363.937C362.281 420.897 360.937 419.554 360.937 417.897V371C360.937 369.343 359.594 368 357.937 368H349.5H341.062Z" fill="url(#paint2_linear_8_3)"/>
<defs>
<linearGradient id="paint0_linear_8_3" x1="364" y1="14" x2="258" y2="661.5" gradientUnits="userSpaceOnUse">
<stop stop-color="#F0C1E1"/>
<stop offset="0.754808" stop-color="#CB9DF0"/>
</linearGradient>
<linearGradient id="paint1_linear_8_3" x1="308.5" y1="548" x2="377.5" y2="284" gradientUnits="userSpaceOnUse">
<stop stop-color="#FFF16C"/>
<stop offset="1" stop-color="#FFF9BF"/>
</linearGradient>
<linearGradient id="paint2_linear_8_3" x1="351.234" y1="366.866" x2="333.821" y2="457.786" gradientUnits="userSpaceOnUse">
<stop stop-color="#F0C1E1"/>
<stop offset="0.754808" stop-color="#CB9DF0"/>
</linearGradient>
</defs>
</svg>
